<?xml version="1.0" encoding="UTF-8"?>
<svg xmlns="http://www.w3.org/2000/svg" xmlns:xlink="http://www.w3.org/1999/xlink" width="219.806pt" height="30.9492pt" viewBox="0 0 219.806 30.9492" version="1.1">
<g id="surface1">
<path style=" stroke:none;fill-rule:nonzero;fill:rgb(99.198914%,25.099182%,0%);fill-opacity:1;" d="M 22.359375 23.890625 L 20.152344 20.066406 L 22.675781 15.699219 C 22.757812 15.550781 22.757812 15.367188 22.675781 15.21875 L 20.152344 10.851562 L 22.359375 7.03125 L 27.226562 15.460938 Z M 6.945312 15.957031 L 11.359375 15.957031 L 13.867188 20.304688 C 13.953125 20.453125 14.113281 20.542969 14.28125 20.542969 L 19.324219 20.542969 L 21.53125 24.367188 L 11.796875 24.367188 Z M 17.199219 15.003906 L 15.105469 11.328125 L 19.324219 11.328125 L 21.445312 15.003906 Z M 14.277344 11.8125 L 16.347656 15.441406 L 14.277344 19.105469 L 12.171875 15.460938 Z M 19.324219 19.589844 L 15.101562 19.589844 L 17.152344 15.957031 L 21.421875 15.957031 Z M 11.796875 6.550781 L 21.53125 6.550781 L 19.324219 10.375 L 14.28125 10.375 C 14.113281 10.375 13.953125 10.464844 13.867188 10.613281 L 11.332031 15.003906 L 6.921875 15.003906 Z M 28.191406 15.21875 L 22.773438 5.835938 C 22.6875 5.6875 22.53125 5.597656 22.359375 5.597656 L 11.523438 5.597656 C 11.351562 5.597656 11.195312 5.6875 11.109375 5.835938 L 5.691406 15.21875 C 5.605469 15.367188 5.605469 15.550781 5.691406 15.699219 L 11.109375 25.082031 C 11.195312 25.230469 11.351562 25.324219 11.523438 25.324219 L 22.359375 25.324219 C 22.53125 25.324219 22.6875 25.230469 22.773438 25.082031 L 28.191406 15.699219 C 28.277344 15.550781 28.277344 15.367188 28.191406 15.21875 "/>
<path style=" stroke:none;fill-rule:nonzero;fill:rgb(99.198914%,25.099182%,0%);fill-opacity:1;" d="M 37.046875 11.988281 C 37.632812 11.382812 38.324219 10.902344 39.121094 10.550781 C 39.917969 10.199219 40.84375 10.019531 41.894531 10.019531 C 43.109375 10.019531 44.109375 10.171875 44.910156 10.476562 C 45.707031 10.777344 46.34375 11.21875 46.820312 11.792969 C 47.292969 12.371094 47.625 13.0625 47.816406 13.871094 C 48.011719 14.675781 48.105469 15.59375 48.105469 16.625 L 48.105469 25.320312 L 44.894531 25.320312 L 44.894531 16.625 C 44.894531 15.457031 44.621094 14.488281 44.078125 13.730469 C 43.53125 12.972656 42.691406 12.597656 41.5625 12.597656 C 40.9375 12.597656 40.355469 12.691406 39.820312 12.882812 C 39.285156 13.078125 38.816406 13.363281 38.410156 13.75 C 38.007812 14.132812 37.683594 14.605469 37.441406 15.171875 C 37.199219 15.738281 37.066406 16.382812 37.046875 17.109375 L 37.046875 25.320312 L 33.835938 25.320312 L 33.835938 5.628906 L 37.046875 5.628906 Z M 37.046875 11.988281 "/>
<path style=" stroke:none;fill-rule:nonzero;fill:rgb(99.198914%,25.099182%,0%);fill-opacity:1;" d="M 59.894531 12.535156 C 58.78125 12.535156 57.859375 12.617188 57.121094 12.78125 C 56.382812 12.941406 55.796875 13.191406 55.363281 13.527344 C 54.929688 13.863281 54.625 14.28125 54.453125 14.777344 C 54.28125 15.277344 54.195312 15.875 54.195312 16.566406 L 65.46875 16.566406 C 65.46875 15.832031 65.375 15.214844 65.195312 14.703125 C 65.011719 14.195312 64.703125 13.777344 64.273438 13.453125 C 63.835938 13.125 63.261719 12.890625 62.542969 12.75 C 61.828125 12.605469 60.945312 12.535156 59.894531 12.535156 M 69.042969 20.261719 C 68.882812 22.222656 68.023438 23.601562 66.46875 24.398438 C 64.914062 25.195312 62.71875 25.59375 59.894531 25.59375 C 58.257812 25.59375 56.859375 25.476562 55.695312 25.246094 C 54.535156 25.015625 53.585938 24.601562 52.847656 24.003906 C 52.109375 23.40625 51.566406 22.609375 51.210938 21.609375 C 50.859375 20.609375 50.679688 19.34375 50.679688 17.808594 C 50.679688 16.3125 50.886719 15.058594 51.300781 14.050781 C 51.714844 13.042969 52.320312 12.230469 53.105469 11.628906 C 53.894531 11.019531 54.859375 10.59375 56 10.339844 C 57.140625 10.085938 58.4375 9.960938 59.894531 9.960938 C 61.265625 9.960938 62.511719 10.074219 63.632812 10.308594 C 64.753906 10.542969 65.71875 10.941406 66.527344 11.507812 C 67.335938 12.070312 67.957031 12.8125 68.390625 13.730469 C 68.828125 14.652344 69.042969 15.789062 69.042969 17.140625 L 69.042969 18.867188 L 54.195312 18.867188 C 54.195312 20.273438 54.644531 21.316406 55.542969 21.996094 C 56.445312 22.679688 57.894531 23.019531 59.894531 23.019531 C 60.921875 23.019531 61.765625 22.949219 62.421875 22.808594 C 63.078125 22.671875 63.605469 22.480469 64 22.238281 C 64.394531 22 64.675781 21.710938 64.847656 21.371094 C 65.019531 21.03125 65.132812 20.660156 65.195312 20.261719 Z M 69.042969 20.261719 "/>
<path style=" stroke:none;fill-rule:nonzero;fill:rgb(99.198914%,25.099182%,0%);fill-opacity:1;" d="M 79.964844 22.960938 C 81.320312 22.960938 82.429688 22.898438 83.289062 22.777344 C 84.152344 22.65625 84.824219 22.449219 85.3125 22.15625 C 85.796875 21.863281 86.117188 21.464844 86.269531 20.960938 C 86.421875 20.453125 86.457031 19.816406 86.375 19.050781 L 77.597656 19.050781 C 76.785156 19.050781 76.148438 19.191406 75.683594 19.476562 C 75.214844 19.757812 74.984375 20.222656 74.984375 20.867188 C 74.984375 21.65625 75.351562 22.199219 76.09375 22.503906 C 76.828125 22.808594 78.121094 22.960938 79.964844 22.960938 M 86.46875 16.839844 C 86.46875 15.976562 86.359375 15.269531 86.148438 14.71875 C 85.9375 14.164062 85.609375 13.734375 85.164062 13.425781 C 84.71875 13.113281 84.148438 12.898438 83.449219 12.777344 C 82.753906 12.65625 81.921875 12.597656 80.953125 12.597656 C 79.941406 12.597656 79.105469 12.640625 78.4375 12.730469 C 77.769531 12.820312 77.25 12.972656 76.875 13.179688 C 76.5 13.390625 76.261719 13.6875 76.148438 14.066406 C 76.039062 14.445312 76.03125 14.914062 76.132812 15.476562 L 72.316406 15.476562 C 72.214844 14.382812 72.371094 13.484375 72.785156 12.777344 C 73.199219 12.070312 73.804688 11.511719 74.605469 11.097656 C 75.402344 10.683594 76.347656 10.398438 77.4375 10.246094 C 78.527344 10.097656 79.699219 10.019531 80.953125 10.019531 C 82.546875 10.019531 83.902344 10.132812 85.011719 10.355469 C 86.121094 10.574219 87.023438 10.960938 87.707031 11.507812 C 88.394531 12.050781 88.894531 12.789062 89.207031 13.71875 C 89.523438 14.644531 89.679688 15.816406 89.679688 17.230469 L 89.679688 25.320312 L 87.195312 25.320312 L 86.890625 23.5625 C 86.667969 23.828125 86.386719 24.078125 86.042969 24.320312 C 85.699219 24.5625 85.257812 24.78125 84.722656 24.972656 C 84.1875 25.164062 83.554688 25.316406 82.816406 25.429688 C 82.078125 25.539062 81.214844 25.59375 80.226562 25.59375 C 78.585938 25.59375 77.210938 25.507812 76.089844 25.339844 C 74.96875 25.164062 74.070312 24.898438 73.390625 24.535156 C 72.714844 24.171875 72.226562 23.699219 71.921875 23.125 C 71.617188 22.550781 71.46875 21.847656 71.46875 21.019531 C 71.46875 20.210938 71.597656 19.539062 71.859375 19.003906 C 72.125 18.46875 72.507812 18.039062 73.011719 17.71875 C 73.519531 17.394531 74.144531 17.167969 74.890625 17.035156 C 75.640625 16.902344 76.507812 16.839844 77.496094 16.839844 Z M 86.46875 16.839844 "/>
<path style=" stroke:none;fill-rule:nonzero;fill:rgb(99.198914%,25.099182%,0%);fill-opacity:1;" d="M 102.34375 12.472656 C 101.210938 12.472656 100.238281 12.554688 99.417969 12.71875 C 98.601562 12.878906 97.929688 13.164062 97.40625 13.570312 C 96.878906 13.972656 96.488281 14.515625 96.238281 15.195312 C 95.984375 15.875 95.859375 16.730469 95.859375 17.761719 C 95.859375 18.855469 96.003906 19.742188 96.296875 20.421875 C 96.589844 21.101562 97.015625 21.632812 97.570312 22.019531 C 98.125 22.402344 98.804688 22.660156 99.601562 22.792969 C 100.398438 22.921875 101.3125 22.988281 102.34375 22.988281 C 103.332031 22.988281 104.171875 22.914062 104.859375 22.761719 C 105.542969 22.609375 106.101562 22.335938 106.523438 21.941406 C 106.949219 21.546875 107.25 21.007812 107.433594 20.328125 C 107.613281 19.652344 107.707031 18.796875 107.707031 17.761719 C 107.707031 16.710938 107.621094 15.84375 107.449219 15.164062 C 107.277344 14.484375 106.988281 13.949219 106.585938 13.554688 C 106.179688 13.160156 105.628906 12.878906 104.933594 12.71875 C 104.238281 12.554688 103.371094 12.472656 102.34375 12.472656 M 102.144531 25.59375 C 100.460938 25.59375 99.117188 25.402344 98.105469 25.019531 C 97.09375 24.636719 96.316406 24.128906 95.769531 23.503906 L 95.769531 29.957031 L 92.554688 29.957031 L 92.554688 10.171875 L 95.769531 10.171875 L 95.769531 11.996094 C 96.335938 11.375 97.117188 10.871094 98.121094 10.484375 C 99.121094 10.09375 100.460938 9.898438 102.144531 9.898438 C 103.863281 9.898438 105.304688 10.03125 106.46875 10.292969 C 107.632812 10.554688 108.566406 10.996094 109.261719 11.613281 C 109.960938 12.226562 110.460938 13.039062 110.765625 14.050781 C 111.070312 15.0625 111.222656 16.3125 111.222656 17.808594 C 111.222656 19.300781 111.070312 20.550781 110.765625 21.550781 C 110.460938 22.550781 109.953125 23.347656 109.246094 23.945312 C 108.539062 24.539062 107.609375 24.964844 106.453125 25.214844 C 105.300781 25.46875 103.863281 25.59375 102.144531 25.59375 "/>
<path style=" stroke:none;fill-rule:nonzero;fill:rgb(99.198914%,25.099182%,0%);fill-opacity:1;" d="M 122.160156 9.898438 C 123.351562 9.898438 124.429688 9.957031 125.402344 10.066406 C 126.371094 10.175781 127.199219 10.414062 127.886719 10.777344 C 128.570312 11.140625 129.101562 11.664062 129.476562 12.339844 C 129.847656 13.015625 130.039062 13.910156 130.039062 15.019531 L 126.523438 15.019531 C 126.523438 14.460938 126.460938 14.011719 126.339844 13.671875 C 126.21875 13.335938 125.996094 13.074219 125.675781 12.894531 C 125.351562 12.714844 124.90625 12.597656 124.339844 12.550781 C 123.773438 12.5 123.046875 12.472656 122.160156 12.472656 C 121.25 12.472656 120.503906 12.496094 119.917969 12.535156 C 119.332031 12.574219 118.867188 12.65625 118.523438 12.777344 C 118.179688 12.894531 117.941406 13.078125 117.808594 13.316406 C 117.679688 13.558594 117.613281 13.886719 117.613281 14.308594 C 117.613281 14.710938 117.652344 15.019531 117.734375 15.242188 C 117.816406 15.460938 118.007812 15.636719 118.308594 15.765625 C 118.613281 15.898438 119.074219 15.992188 119.6875 16.050781 C 120.304688 16.113281 121.160156 16.183594 122.25 16.261719 C 123.703125 16.34375 124.960938 16.4375 126.023438 16.550781 C 127.082031 16.664062 127.953125 16.859375 128.628906 17.140625 C 129.304688 17.425781 129.808594 17.835938 130.140625 18.382812 C 130.476562 18.929688 130.640625 19.675781 130.640625 20.625 C 130.640625 21.714844 130.492188 22.589844 130.1875 23.246094 C 129.886719 23.902344 129.398438 24.410156 128.734375 24.761719 C 128.066406 25.117188 127.191406 25.339844 126.113281 25.445312 C 125.03125 25.542969 123.722656 25.59375 122.1875 25.59375 C 120.613281 25.59375 119.28125 25.554688 118.1875 25.472656 C 117.097656 25.390625 116.214844 25.175781 115.539062 24.824219 C 114.859375 24.46875 114.371094 23.929688 114.066406 23.203125 C 113.765625 22.472656 113.613281 21.472656 113.613281 20.203125 L 117.128906 20.203125 C 117.128906 20.902344 117.183594 21.441406 117.296875 21.820312 C 117.40625 22.199219 117.632812 22.480469 117.976562 22.660156 C 118.320312 22.839844 118.828125 22.945312 119.492188 22.972656 C 120.160156 23.003906 121.058594 23.019531 122.1875 23.019531 C 123.28125 23.019531 124.160156 22.980469 124.824219 22.898438 C 125.492188 22.820312 125.996094 22.683594 126.339844 22.492188 C 126.683594 22.300781 126.910156 22.050781 127.023438 21.742188 C 127.132812 21.429688 127.1875 21.054688 127.1875 20.613281 C 127.1875 20.191406 127.125 19.871094 126.992188 19.652344 C 126.859375 19.429688 126.605469 19.261719 126.234375 19.152344 C 125.859375 19.042969 125.339844 18.960938 124.675781 18.914062 C 124.007812 18.863281 123.148438 18.808594 122.097656 18.746094 C 120.625 18.625 119.382812 18.515625 118.371094 18.414062 C 117.359375 18.3125 116.539062 18.121094 115.902344 17.835938 C 115.265625 17.554688 114.804688 17.140625 114.523438 16.59375 C 114.238281 16.050781 114.097656 15.285156 114.097656 14.292969 C 114.097656 13.324219 114.292969 12.550781 114.675781 11.976562 C 115.058594 11.398438 115.601562 10.960938 116.3125 10.65625 C 117.015625 10.355469 117.867188 10.152344 118.855469 10.050781 C 119.847656 9.949219 120.945312 9.898438 122.160156 9.898438 "/>
<path style=" stroke:none;fill-rule:nonzero;fill:rgb(99.198914%,25.099182%,0%);fill-opacity:1;" d="M 143.15625 12.472656 C 142.023438 12.472656 141.050781 12.554688 140.230469 12.71875 C 139.414062 12.878906 138.742188 13.164062 138.21875 13.570312 C 137.691406 13.972656 137.304688 14.515625 137.050781 15.195312 C 136.796875 15.875 136.671875 16.730469 136.671875 17.761719 C 136.671875 18.855469 136.816406 19.742188 137.109375 20.421875 C 137.402344 21.101562 137.828125 21.632812 138.382812 22.019531 C 138.9375 22.402344 139.617188 22.660156 140.414062 22.792969 C 141.210938 22.921875 142.125 22.988281 143.15625 22.988281 C 144.144531 22.988281 144.984375 22.914062 145.671875 22.761719 C 146.355469 22.609375 146.914062 22.335938 147.339844 21.941406 C 147.761719 21.546875 148.066406 21.007812 148.246094 20.328125 C 148.429688 19.652344 148.519531 18.796875 148.519531 17.761719 C 148.519531 16.710938 148.433594 15.84375 148.261719 15.164062 C 148.089844 14.484375 147.800781 13.949219 147.398438 13.554688 C 146.996094 13.160156 146.445312 12.878906 145.746094 12.71875 C 145.050781 12.554688 144.1875 12.472656 143.15625 12.472656 M 142.957031 25.59375 C 141.277344 25.59375 139.929688 25.402344 138.917969 25.019531 C 137.90625 24.636719 137.128906 24.128906 136.582031 23.503906 L 136.582031 29.957031 L 133.371094 29.957031 L 133.371094 10.171875 L 136.582031 10.171875 L 136.582031 11.996094 C 137.148438 11.375 137.933594 10.871094 138.933594 10.484375 C 139.9375 10.09375 141.277344 9.898438 142.957031 9.898438 C 144.675781 9.898438 146.121094 10.03125 147.28125 10.292969 C 148.445312 10.554688 149.378906 10.996094 150.078125 11.613281 C 150.773438 12.226562 151.273438 13.039062 151.578125 14.050781 C 151.882812 15.0625 152.035156 16.3125 152.035156 17.808594 C 152.035156 19.300781 151.882812 20.550781 151.578125 21.550781 C 151.273438 22.550781 150.769531 23.347656 150.058594 23.945312 C 149.351562 24.539062 148.421875 24.964844 147.265625 25.214844 C 146.113281 25.46875 144.675781 25.59375 142.957031 25.59375 "/>
<path style=" stroke:none;fill-rule:nonzero;fill:rgb(99.198914%,25.099182%,0%);fill-opacity:1;" d="M 162.925781 22.960938 C 164.28125 22.960938 165.390625 22.898438 166.25 22.777344 C 167.113281 22.65625 167.785156 22.449219 168.273438 22.15625 C 168.757812 21.863281 169.078125 21.464844 169.230469 20.960938 C 169.378906 20.453125 169.414062 19.816406 169.335938 19.050781 L 160.554688 19.050781 C 159.746094 19.050781 159.109375 19.191406 158.640625 19.476562 C 158.175781 19.757812 157.941406 20.222656 157.941406 20.867188 C 157.941406 21.65625 158.3125 22.199219 159.050781 22.503906 C 159.789062 22.808594 161.082031 22.960938 162.925781 22.960938 M 169.425781 16.839844 C 169.425781 15.976562 169.320312 15.269531 169.109375 14.71875 C 168.898438 14.164062 168.566406 13.734375 168.121094 13.425781 C 167.679688 13.113281 167.109375 12.898438 166.410156 12.777344 C 165.714844 12.65625 164.878906 12.597656 163.910156 12.597656 C 162.902344 12.597656 162.0625 12.640625 161.398438 12.730469 C 160.730469 12.820312 160.210938 12.972656 159.835938 13.179688 C 159.460938 13.390625 159.21875 13.6875 159.109375 14.066406 C 158.996094 14.445312 158.992188 14.914062 159.09375 15.476562 L 155.277344 15.476562 C 155.175781 14.382812 155.332031 13.484375 155.746094 12.777344 C 156.160156 12.070312 156.765625 11.511719 157.5625 11.097656 C 158.363281 10.683594 159.304688 10.398438 160.398438 10.246094 C 161.488281 10.097656 162.660156 10.019531 163.910156 10.019531 C 165.507812 10.019531 166.859375 10.132812 167.972656 10.355469 C 169.082031 10.574219 169.980469 10.960938 170.667969 11.507812 C 171.355469 12.050781 171.855469 12.789062 172.167969 13.71875 C 172.480469 14.644531 172.636719 15.816406 172.636719 17.230469 L 172.636719 25.320312 L 170.152344 25.320312 L 169.851562 23.5625 C 169.628906 23.828125 169.347656 24.078125 169 24.320312 C 168.65625 24.5625 168.21875 24.78125 167.683594 24.972656 C 167.148438 25.164062 166.511719 25.316406 165.777344 25.429688 C 165.035156 25.539062 164.171875 25.59375 163.183594 25.59375 C 161.546875 25.59375 160.167969 25.507812 159.046875 25.339844 C 157.929688 25.164062 157.027344 24.898438 156.351562 24.535156 C 155.675781 24.171875 155.1875 23.699219 154.882812 23.125 C 154.578125 22.550781 154.429688 21.847656 154.429688 21.019531 C 154.429688 20.210938 154.558594 19.539062 154.820312 19.003906 C 155.082031 18.46875 155.46875 18.039062 155.972656 17.71875 C 156.476562 17.394531 157.105469 17.167969 157.851562 17.035156 C 158.597656 16.902344 159.46875 16.839844 160.457031 16.839844 Z M 169.425781 16.839844 "/>
<path style=" stroke:none;fill-rule:nonzero;fill:rgb(99.198914%,25.099182%,0%);fill-opacity:1;" d="M 178.726562 17.746094 C 178.726562 19.523438 179.207031 20.847656 180.167969 21.71875 C 181.125 22.585938 182.535156 23.019531 184.394531 23.019531 C 185.382812 23.019531 186.210938 22.949219 186.878906 22.808594 C 187.542969 22.667969 188.082031 22.449219 188.484375 22.148438 C 188.886719 21.847656 189.164062 21.460938 189.316406 20.992188 C 189.46875 20.519531 189.535156 19.953125 189.515625 19.292969 L 193.363281 19.292969 C 193.464844 20.484375 193.296875 21.484375 192.863281 22.292969 C 192.425781 23.101562 191.800781 23.746094 190.984375 24.230469 C 190.164062 24.714844 189.191406 25.0625 188.058594 25.277344 C 186.929688 25.488281 185.707031 25.59375 184.394531 25.59375 C 182.941406 25.59375 181.648438 25.472656 180.515625 25.230469 C 179.382812 24.988281 178.425781 24.574219 177.636719 23.988281 C 176.847656 23.402344 176.25 22.605469 175.832031 21.597656 C 175.417969 20.585938 175.210938 19.3125 175.210938 17.777344 C 175.210938 16.28125 175.445312 15.03125 175.910156 14.019531 C 176.375 13.011719 177.015625 12.203125 177.832031 11.597656 C 178.652344 10.988281 179.621094 10.558594 180.742188 10.292969 C 181.863281 10.03125 183.082031 9.898438 184.394531 9.898438 C 185.664062 9.898438 186.867188 10.019531 188 10.261719 C 189.128906 10.507812 190.105469 10.886719 190.921875 11.398438 C 191.742188 11.914062 192.359375 12.582031 192.773438 13.398438 C 193.183594 14.21875 193.324219 15.203125 193.179688 16.351562 L 189.332031 16.351562 C 189.433594 15.722656 189.4375 15.160156 189.347656 14.675781 C 189.257812 14.183594 189.023438 13.777344 188.652344 13.453125 C 188.277344 13.128906 187.746094 12.882812 187.058594 12.71875 C 186.375 12.558594 185.484375 12.476562 184.394531 12.476562 C 182.433594 12.476562 181 12.910156 180.089844 13.777344 C 179.183594 14.644531 178.726562 15.96875 178.726562 17.746094 "/>
<path style=" stroke:none;fill-rule:nonzero;fill:rgb(99.198914%,25.099182%,0%);fill-opacity:1;" d="M 205.027344 12.535156 C 203.917969 12.535156 202.992188 12.617188 202.253906 12.78125 C 201.515625 12.941406 200.929688 13.191406 200.5 13.527344 C 200.0625 13.863281 199.757812 14.28125 199.589844 14.777344 C 199.417969 15.277344 199.332031 15.875 199.332031 16.566406 L 210.601562 16.566406 C 210.601562 15.832031 210.511719 15.214844 210.332031 14.703125 C 210.148438 14.195312 209.839844 13.777344 209.40625 13.453125 C 208.972656 13.125 208.394531 12.890625 207.679688 12.75 C 206.960938 12.605469 206.078125 12.535156 205.027344 12.535156 M 214.179688 20.261719 C 214.015625 22.222656 213.160156 23.601562 211.601562 24.398438 C 210.046875 25.195312 207.855469 25.59375 205.027344 25.59375 C 203.390625 25.59375 201.992188 25.476562 200.832031 25.246094 C 199.667969 25.015625 198.71875 24.601562 197.984375 24.003906 C 197.246094 23.40625 196.699219 22.609375 196.347656 21.609375 C 195.992188 20.609375 195.816406 19.34375 195.816406 17.808594 C 195.816406 16.3125 196.023438 15.058594 196.4375 14.050781 C 196.851562 13.042969 197.453125 12.230469 198.242188 11.628906 C 199.027344 11.019531 199.992188 10.59375 201.132812 10.339844 C 202.273438 10.085938 203.574219 9.960938 205.027344 9.960938 C 206.402344 9.960938 207.648438 10.074219 208.769531 10.308594 C 209.890625 10.542969 210.855469 10.941406 211.664062 11.507812 C 212.46875 12.070312 213.089844 12.8125 213.527344 13.730469 C 213.960938 14.652344 214.179688 15.789062 214.179688 17.140625 L 214.179688 18.867188 L 199.332031 18.867188 C 199.332031 20.273438 199.78125 21.316406 200.679688 21.996094 C 201.578125 22.679688 203.027344 23.019531 205.027344 23.019531 C 206.058594 23.019531 206.902344 22.949219 207.558594 22.808594 C 208.214844 22.671875 208.738281 22.480469 209.132812 22.238281 C 209.527344 22 209.808594 21.710938 209.980469 21.371094 C 210.152344 21.03125 210.269531 20.660156 210.332031 20.261719 Z M 214.179688 20.261719 "/>
</g>
</svg>
