<svg id="Layer_1" data-name="Layer 1" xmlns="http://www.w3.org/2000/svg" xmlns:xlink="http://www.w3.org/1999/xlink" viewBox="0 0 233.01 44.59"><defs><style>.cls-1{fill:none;}.cls-2{clip-path:url(#clip-path);}.cls-3{fill:#fff;}.cls-4{fill:#ff8300;}</style><clipPath id="clip-path"><rect class="cls-1" width="233.01" height="44.59"/></clipPath></defs><title>ts-logo</title><g class="cls-2"><path class="cls-3" d="M13,37a10.35,10.35,0,0,1-4.61-1.36,7.45,7.45,0,0,1-2.93-3.32,13,13,0,0,1-1-5.52V15.7H0V8.63H4.45V2.5h8.22V8.63h5.91V15.7H12.67V26.85a3.09,3.09,0,0,0,.6,2.07,3.19,3.19,0,0,0,1.52,1,5.72,5.72,0,0,0,2,.24,11.87,11.87,0,0,0,2-.26l.26,6.8A25.34,25.34,0,0,1,13,37"/><path class="cls-3" d="M80.35,24.6A13.43,13.43,0,0,1,75,34.15a13.84,13.84,0,0,1-4.58,2.25,15.33,15.33,0,0,1-5.1.55,16.1,16.1,0,0,1-5-1.13A13.25,13.25,0,0,1,56,33a13.53,13.53,0,0,1-3-4.45,15.32,15.32,0,0,1-1.15-6.15A15.32,15.32,0,0,1,53,16.3a13.57,13.57,0,0,1,3-4.45,13.25,13.25,0,0,1,4.32-2.77,15.62,15.62,0,0,1,5-1.1,15.88,15.88,0,0,1,5.1.58A13.88,13.88,0,0,1,75,10.81a13.43,13.43,0,0,1,5.31,9.55H72.18a6.39,6.39,0,0,0-1.54-2.77A6,6,0,0,0,68.21,16a6.59,6.59,0,0,0-5.52.71,6,6,0,0,0-2,2.22,7.18,7.18,0,0,0-.79,3.48,7.17,7.17,0,0,0,.79,3.48,6.1,6.1,0,0,0,4.71,3.25,6.42,6.42,0,0,0,2.83-.26,6,6,0,0,0,2.43-1.54,6.38,6.38,0,0,0,1.54-2.77Z"/><path class="cls-3" d="M83.34,0h8.32V11.15a7.6,7.6,0,0,1,3.61-2.56,14.14,14.14,0,0,1,4.4-.68,11.17,11.17,0,0,1,5,1.1,8.17,8.17,0,0,1,3.14,2.85A12.1,12.1,0,0,1,109.46,16a23.31,23.31,0,0,1,.42,5v15.6h-8.32V21.09a6.42,6.42,0,0,0-.71-3.22,4.23,4.23,0,0,0-1.75-1.75,4,4,0,0,0-2.28-.39,5.15,5.15,0,0,0-2.28.81,5.57,5.57,0,0,0-1.75,1.88,5.5,5.5,0,0,0-.7,2.82V36.63H83.34Z"/><path class="cls-3" d="M41.46,19.45a6,6,0,0,0-6.19-4.67,6,6,0,0,0-6.19,4.67Zm7.22,8.11a16,16,0,0,1-5.55,7A13.25,13.25,0,0,1,35.37,37,14.47,14.47,0,0,1,20.92,22.54c0-7.62,6-14.64,14.3-14.64s14.4,6.58,14.4,14.89a11,11,0,0,1-.2,2.16H29a6.12,6.12,0,0,0,6.39,5.16,5.81,5.81,0,0,0,5-2.56Z"/><path class="cls-4" d="M147.49,22.5a6.93,6.93,0,0,0,.94,3.74,6.25,6.25,0,0,0,2.38,2.25,6.67,6.67,0,0,0,6.18,0,6.26,6.26,0,0,0,2.38-2.25,6.9,6.9,0,0,0,.94-3.74,7,7,0,0,0-.94-3.77A6.21,6.21,0,0,0,157,16.46a6.67,6.67,0,0,0-6.18,0,6.2,6.2,0,0,0-2.38,2.28,7.05,7.05,0,0,0-.94,3.77m21,0a15.11,15.11,0,0,1-1.26,6.39A13.63,13.63,0,0,1,164,33.44a13.94,13.94,0,0,1-4.68,2.75,16.15,16.15,0,0,1-10.73,0,13.94,13.94,0,0,1-4.68-2.75,13.63,13.63,0,0,1-3.32-4.55,15.11,15.11,0,0,1-1.25-6.39,15.29,15.29,0,0,1,1.25-6.41,13.55,13.55,0,0,1,3.32-4.58,14,14,0,0,1,4.68-2.75,16.18,16.18,0,0,1,10.73,0A14,14,0,0,1,164,11.51a13.55,13.55,0,0,1,3.32,4.58,15.29,15.29,0,0,1,1.26,6.41"/><path class="cls-4" d="M185.44,37.16a16.84,16.84,0,0,1-4.9-.72,13.24,13.24,0,0,1-4.26-2.15,10.63,10.63,0,0,1-3-3.64,11,11,0,0,1-1.14-5.12V8.41h8.46V25.48a3.25,3.25,0,0,0,.72,2.15,4.32,4.32,0,0,0,1.8,1.29,6.55,6.55,0,0,0,2.38.42,6.19,6.19,0,0,0,2.38-.45,4.66,4.66,0,0,0,1.81-1.29,3.16,3.16,0,0,0,.72-2.13V8.41h8.46V25.53a10.65,10.65,0,0,1-4.21,8.76,13.21,13.21,0,0,1-4.28,2.15,17.09,17.09,0,0,1-4.92.72"/><path class="cls-4" d="M218.41,15.86a6,6,0,0,0-2.51.52,6.44,6.44,0,0,0-2,1.46A6.92,6.92,0,0,0,212.47,20a7,7,0,0,0-.5,2.64,7.21,7.21,0,0,0,.5,2.67,6.53,6.53,0,0,0,1.39,2.17,7,7,0,0,0,2,1.47,5.74,5.74,0,0,0,2.51.55,6.16,6.16,0,0,0,2.75-.58,5.83,5.83,0,0,0,2-1.52,6.73,6.73,0,0,0,1.2-2.17,7.73,7.73,0,0,0,.42-2.48,8.36,8.36,0,0,0-.39-2.51A6.69,6.69,0,0,0,223.17,18a5.94,5.94,0,0,0-2-1.57,6.11,6.11,0,0,0-2.77-.6m.89,21.25a11.07,11.07,0,0,1-4-.73A8.35,8.35,0,0,1,212,34V44.58h-8.16V8.32H212v2.83a7.52,7.52,0,0,1,3.43-2.51,12.14,12.14,0,0,1,4-.68,13.25,13.25,0,0,1,5.91,1.26,12.87,12.87,0,0,1,4.29,3.32,13.6,13.6,0,0,1,2.57,4.79A19.16,19.16,0,0,1,233,23a18.12,18.12,0,0,1-.92,5.49,12.79,12.79,0,0,1-2.56,4.48,12.19,12.19,0,0,1-4.24,3,14.67,14.67,0,0,1-6,1.13"/><path class="cls-4" d="M127.8,19.54l-.1,0-5.12,5.68c.64.24,1.23.44,1.77.62,2.5.84,3.51,1.25,3.51,2.8,0,1.36-1.34,2.17-3.59,2.17s-3.84-1-4.3-2.7l-5.07,5.61c2,2.1,5.38,3.29,9.53,3.29,7,0,11.6-3.5,11.6-8.92,0-4.14-2.39-6.6-8.24-8.51"/><path class="cls-3" d="M125.42,7.83c-6.85,0-11.44,3.63-11.44,9,0,4.08,2.88,6.09,7.87,8l.63.25.1,0,5.12-5.67-.76-.25-.08,0c-3.41-1.1-4.92-1.66-4.92-3.25,0-1.26,1.36-2.11,3.37-2.11a3.78,3.78,0,0,1,4,2.73v0l4.87-5.39c-2-2.18-5-3.4-8.76-3.4"/></g></svg>